<?xml version="1.0" encoding="iso-8859-1"?>
<!-- Uploaded to: SVG Repo, www.svgrepo.com, Generator: SVG Repo Mixer Tools -->
<svg fill="#000000" version="1.1" id="Layer_1" xmlns="http://www.w3.org/2000/svg" xmlns:xlink="http://www.w3.org/1999/xlink" 
	 viewBox="0 0 512 512" xml:space="preserve">
<g>
	<g>
		<path d="M89.044,0v33.391H55.652v33.391h33.391v33.391H55.652v33.391h33.391v66.783H55.652v33.391h33.391v33.391H55.652v33.391
			h33.391v77.913H55.652v33.391h33.391v33.391H55.652v33.391h33.391V512h400.696V0H89.044z M411.826,278.261h-33.391v33.391h-33.391
			v33.391h33.391v33.391h33.391v33.391h-244.87v-33.391h33.391v-33.391h33.391v-33.391h-33.391v-33.391h-33.391V155.826h33.391
			v-33.391h33.391V89.044h111.304v33.391h33.391v33.391h33.391V278.261z"/>
	</g>
</g>
<g>
	<g>
		<rect x="22.261" y="66.783" width="33.391" height="33.391"/>
	</g>
</g>
<g>
	<g>
		<rect x="22.261" y="233.739" width="33.391" height="33.391"/>
	</g>
</g>
<g>
	<g>
		<rect x="22.261" y="411.826" width="33.391" height="33.391"/>
	</g>
</g>
</svg>